<?xml version="1.0" encoding="UTF-8"?>
<svg version="1.1" xmlns="http://www.w3.org/2000/svg" width="500" height="500">
<path d="M0 0 C40.92 0 81.84 0 124 0 C124 51.15 124 102.3 124 155 C157.33 155 190.66 155 225 155 C225 109.79 225 64.58 225 18 C253.71 18 282.42 18 312 18 C312 133.83 312 249.66 312 369 C283.29 369 254.58 369 225 369 C225 321.48 225 273.96 225 225 C191.67 225 158.34 225 124 225 C124 279.45 124 333.9 124 390 C83.08 390 42.16 390 0 390 C0 261.3 0 132.6 0 0 Z M5 5 C5 130.4 5 255.8 5 385 C42.62 385 80.24 385 119 385 C119 259.6 119 134.2 119 5 C81.38 5 43.76 5 5 5 Z " fill="#000000" transform="translate(112,55)"/>
<path d="M0 0 C40.92 0 81.84 0 124 0 C124 51.15 124 102.3 124 155 C157.33 155 190.66 155 225 155 C225 109.79 225 64.58 225 18 C253.71 18 282.42 18 312 18 C312 133.83 312 249.66 312 369 C311.67 369 311.34 369 311 369 C311 253.5 311 138 311 19 C282.95 19 254.9 19 226 19 C226 64.21 226 109.42 226 156 C192.34 156 158.68 156 124 156 C124 178.44 124 200.88 124 224 C157.66 224 191.32 224 226 224 C226 271.85 226 319.7 226 369 C225.67 369 225.34 369 225 369 C225 321.48 225 273.96 225 225 C191.67 225 158.34 225 124 225 C124 279.45 124 333.9 124 390 C83.08 390 42.16 390 0 390 C0 261.3 0 132.6 0 0 Z M5 5 C5 130.4 5 255.8 5 385 C42.62 385 80.24 385 119 385 C119 259.6 119 134.2 119 5 C81.38 5 43.76 5 5 5 Z " fill="#505050" transform="translate(112,55)"/>
<path d="M0 0 C0.56779458 3.15441432 0.74029345 5.86403469 0 9 C-3.22834699 12.36286145 -7.40559791 14.23556064 -11.56640625 16.23046875 C-12.36949219 16.62878906 -13.17257813 17.02710938 -14 17.4375 C-14.7425 17.76621094 -15.485 18.09492188 -16.25 18.43359375 C-18.82276343 20.39849066 -18.82276343 20.39849066 -19 27 C-12.73 27 -6.46 27 0 27 C0 29.64 0 32.28 0 35 C-16.17 35 -32.34 35 -49 35 C-49 9.46875 -49 9.46875 -44 3.6875 C-40.42800504 0.67362925 -36.8253957 0.65707889 -32.3515625 0.72265625 C-28.34221694 1.19551926 -26.22908247 2.54589733 -23 5 C-21.0625 8.25 -21.0625 8.25 -20 11 C-14.70899943 8.16970374 -9.44362324 5.34127184 -4.375 2.125 C-1 0 -1 0 0 0 Z M-43 14 C-43.48079519 17.34994801 -43.48079519 17.34994801 -43.25 20.8125 C-43.1675 22.854375 -43.085 24.89625 -43 27 C-37.39 27 -31.78 27 -26 27 C-25.9175 24.958125 -25.835 22.91625 -25.75 20.8125 C-25.70359375 19.66394531 -25.6571875 18.51539063 -25.609375 17.33203125 C-26.08035349 13.31458477 -27.06085508 11.74151276 -30 9 C-32.19710495 8.22029621 -32.19710495 8.22029621 -34.5 8.375 C-35.2528125 8.36210937 -36.005625 8.34921875 -36.78125 8.3359375 C-40.15887339 9.34684591 -41.20887827 11.01883117 -43 14 Z " fill="#2D2D2D" transform="translate(193,286)"/>
<path d="M0 0 C0.28767307 3.04933453 0.44649251 5.9616729 0 9 C-2.3125 10.6875 -2.3125 10.6875 -5 12 C-8.55260271 17.02264521 -8.70582398 22.06334354 -8 28 C-6.33282118 32.73829769 -4.14637955 35.2011938 0 38 C5.63209006 39.87736335 12.56102582 40.0358356 18.26953125 38.31640625 C22.49329371 36.09870091 25.05027761 33.28938926 27 29 C27.80761074 22.84196813 27.75558301 17.1801145 24 12 C23.113125 11.566875 22.22625 11.13375 21.3125 10.6875 C20.549375 10.130625 19.78625 9.57375 19 9 C18.55350749 5.9616729 18.71232693 3.04933453 19 0 C25.66674659 1.16668065 29.21632629 5.75839697 33 11 C36.09975469 18.10360449 36.00112692 25.9054579 33.5 33.1875 C30.58988045 39.70452829 25.68149043 44.05720856 19.1875 46.9375 C11.45115498 49.35983895 3.63794786 48.70695897 -3.70703125 45.390625 C-9.46400331 41.89917346 -13.54249662 36.54395482 -15.56640625 30.1328125 C-16.98891345 23.13561491 -16.58213434 16.26247263 -13 10 C-5.65957447 0 -5.65957447 0 0 0 Z " fill="#2F2F2F" transform="translate(159,325)"/>
<path d="M0 0 C0.43927311 5.35913191 0.43927311 5.35913191 0 8 C-2.4375 9.875 -2.4375 9.875 -5 11 C-6.16343227 13.32686453 -6.19895988 14.84721413 -6.25 17.4375 C-6.27578125 18.21996094 -6.3015625 19.00242187 -6.328125 19.80859375 C-6.13332832 22.03362879 -6.13332832 22.03362879 -4.921875 23.84765625 C-1.88548628 25.66825517 0.66008179 24.69319057 4 24 C4.21615967 23.41508789 4.43231934 22.83017578 4.6550293 22.22753906 C5.65017096 19.56219816 6.66851534 16.9063119 7.6875 14.25 C8.02716797 13.32960938 8.36683594 12.40921875 8.71679688 11.4609375 C12.13153312 2.65283279 12.13153312 2.65283279 17 0 C21.51869083 -1.0263693 26.05525666 -1.03972956 30.19921875 1.17578125 C33.59983718 3.93477356 36.1060343 6.62950104 37 11 C37.72250967 18.84056785 36.75493964 24.5749399 31.6875 30.875 C28.67420058 33.25760884 26.80579922 33.82700913 23 34 C22 33 22 33 21.9375 29.4375 C21.958125 28.303125 21.97875 27.16875 22 26 C23.423125 25.4121875 23.423125 25.4121875 24.875 24.8125 C28.06077608 23.28412087 28.06077608 23.28412087 29.4375 20.75 C30.17388752 17.14988323 29.92132252 14.55367258 29 11 C27.44202118 8.85217329 27.44202118 8.85217329 25 8 C21.90351124 7.83551119 21.90351124 7.83551119 19 9 C15.7864862 13.37463074 14.50164883 18.40471213 13.0703125 23.56054688 C11.66845456 28.14886481 10.15994801 30.56476036 6 33 C0.84655765 34.02018655 -3.7209636 33.57099839 -8.5 31.4375 C-12.93293142 27.11539186 -14.15102347 23.07850712 -14.4375 17.0625 C-14.24469675 11.03969374 -12.35345852 6.21082467 -7.9375 2.0625 C-5.17049782 0.54511171 -3.16683653 0 0 0 Z " fill="#2F2F2F" transform="translate(157,375)"/>
<path d="M0 0 C0.43927311 5.35913191 0.43927311 5.35913191 0 8 C-2.4375 9.875 -2.4375 9.875 -5 11 C-6.16343227 13.32686453 -6.19895988 14.84721413 -6.25 17.4375 C-6.27578125 18.21996094 -6.3015625 19.00242188 -6.328125 19.80859375 C-6.13332832 22.03362879 -6.13332832 22.03362879 -4.921875 23.84765625 C-1.88548628 25.66825517 0.66008179 24.69319057 4 24 C4.21615967 23.41508789 4.43231934 22.83017578 4.6550293 22.22753906 C5.65017096 19.56219816 6.66851534 16.9063119 7.6875 14.25 C8.02716797 13.32960937 8.36683594 12.40921875 8.71679688 11.4609375 C12.13153312 2.65283279 12.13153312 2.65283279 17 0 C21.51869083 -1.0263693 26.05525666 -1.03972956 30.19921875 1.17578125 C33.59983718 3.93477356 36.1060343 6.62950104 37 11 C37.72250967 18.84056785 36.75493964 24.5749399 31.6875 30.875 C28.67420058 33.25760884 26.80579922 33.82700913 23 34 C22 33 22 33 21.9375 29.4375 C21.958125 28.303125 21.97875 27.16875 22 26 C23.423125 25.4121875 23.423125 25.4121875 24.875 24.8125 C28.06077608 23.28412087 28.06077608 23.28412087 29.4375 20.75 C30.17388752 17.14988323 29.92132252 14.55367258 29 11 C27.44202118 8.85217329 27.44202118 8.85217329 25 8 C21.90351124 7.83551119 21.90351124 7.83551119 19 9 C15.7864862 13.37463074 14.50164883 18.40471213 13.0703125 23.56054688 C11.66845456 28.14886481 10.15994801 30.56476036 6 33 C0.84655765 34.02018655 -3.7209636 33.57099839 -8.5 31.4375 C-12.93293142 27.11539186 -14.15102347 23.07850712 -14.4375 17.0625 C-14.24469675 11.03969374 -12.35345852 6.21082467 -7.9375 2.0625 C-5.17049782 0.54511171 -3.16683653 0 0 0 Z " fill="#2F2F2F" transform="translate(157,167)"/>
<path d="M0 0 C3.9375195 1.75782121 5.50085641 3.25128461 7.875 6.8125 C10.09055797 12.69474163 9.16264023 19.87388466 9 26 C15.6 26 22.2 26 29 26 C29 28.31 29 30.62 29 33 C12.83 33 -3.34 33 -20 33 C-20 10 -20 10 -15 2 C-9.83073534 -0.58463233 -5.69020867 -0.65148766 0 0 Z M-12 9 C-14.34492373 12.51324261 -14.20784043 15.60797855 -14.125 19.75 C-14.08375 21.8125 -14.0425 23.875 -14 26 C-8.39 26 -2.78 26 3 26 C3.061875 24.123125 3.12375 22.24625 3.1875 20.3125 C3.22230469 19.25675781 3.25710937 18.20101562 3.29296875 17.11328125 C2.96063055 13.58163401 2.11678496 11.81744571 0 9 C-4.21624679 6.18916881 -7.75587091 6.07301442 -12 9 Z " fill="#1F1F1F" transform="translate(164,236)"/>
<path d="M0 0 C0.73863281 0.020625 1.47726563 0.04125 2.23828125 0.0625 C4.6875 1 4.6875 1 10.6875 8 C10.6875 15.26 10.6875 22.52 10.6875 30 C-4.4925 30 -19.6725 30 -35.3125 30 C-35.3125 9.57894737 -35.3125 9.57894737 -31.125 3.1875 C-28.09999688 1.20560141 -24.84693364 0.87281394 -21.3125 1 C-17.93443689 2.33847784 -15.33092265 3.98771824 -12.3125 6 C-11.549375 5.195625 -10.78625 4.39125 -10 3.5625 C-6.66929816 0.38671452 -4.45995362 -0.24649139 0 0 Z M-9.3125 8 C-11.36893617 12.01393727 -11.52783983 15.34067837 -11.4375 19.8125 C-11.39625 21.854375 -11.355 23.89625 -11.3125 26 C-5.0425 26 1.2275 26 7.6875 26 C7.7803125 22.720625 7.7803125 22.720625 7.875 19.375 C7.90980469 18.14523438 7.94460937 16.91546875 7.98046875 15.6484375 C7.66345099 11.70050968 6.74115841 9.35780645 4.6875 6 C-0.56434053 2.14865028 -4.97297495 3.66047495 -9.3125 8 Z M-30.3125 9 C-31.84440797 12.06381594 -31.41493613 15.26965866 -31.375 18.625 C-31.354375 21.05875 -31.33375 23.4925 -31.3125 26 C-25.7025 26 -20.0925 26 -14.3125 26 C-13.5624407 15.95135725 -13.5624407 15.95135725 -17.3125 7 C-22.41335049 3.38004159 -26.04479879 5.07832862 -30.3125 9 Z " fill="#505050" transform="translate(178.3125,116)"/>
<path d="M0 0 C1.98 0 3.96 0 6 0 C6 4.29 6 8.58 6 13 C20.19 13 34.38 13 49 13 C49 15.31 49 17.62 49 20 C34.81 20 20.62 20 6 20 C6 24.62 6 29.24 6 34 C4.02 34 2.04 34 0 34 C0 22.78 0 11.56 0 0 Z " fill="#1C1C1C" transform="translate(144,202)"/>
<path d="M0 0 C16.17 0 32.34 0 49 0 C49 2.31 49 4.62 49 7 C32.83 7 16.66 7 0 7 C0 4.69 0 2.38 0 0 Z " fill="#191919" transform="translate(144,275)"/>
<path d="M0 0 C3.35517773 0.65419953 5.82903058 1.93928526 8.75390625 3.6875 C21.43859364 10.98116774 31.29084815 14.89250396 46 14 C46 15.32 46 16.64 46 18 C44.91847656 17.92136719 43.83695313 17.84273437 42.72265625 17.76171875 C27.72482924 17.31295966 16.92510311 23.35661765 4.22045898 30.82250977 C2 32 2 32 0 32 C0.22485352 29.66723633 0.22485352 29.66723633 1 27 C2.91772461 25.5144043 2.91772461 25.5144043 5.40234375 24.32421875 C6.29244141 23.88916016 7.18253906 23.45410156 8.09960938 23.00585938 C9.03611328 22.57080078 9.97261719 22.13574219 10.9375 21.6875 C12.33645508 21.0059082 12.33645508 21.0059082 13.76367188 20.31054688 C20.64861372 17 20.64861372 17 23 17 C23 16.34 23 15.68 23 15 C22.19304687 14.76539062 21.38609375 14.53078125 20.5546875 14.2890625 C16.1727263 12.69999965 12.21537571 10.59350886 8.125 8.375 C7.34125 7.95476562 6.5575 7.53453125 5.75 7.1015625 C3.83107943 6.0718978 1.91522397 5.03652433 0 4 C0 2.68 0 1.36 0 0 Z " fill="#585858" transform="translate(143,84)"/>
<path d="M0 0 C1.27677138 3.83031413 0.8624174 7.23497484 0.5625 11.1875 C0.376875 13.765625 0.19125 16.34375 0 19 C6.27 19 12.54 19 19 19 C19 16.03 19 13.06 19 10 C19.33 10 19.66 10 20 10 C20 12.97 20 15.94 20 19 C26.93 19 33.86 19 41 19 C40.505 10.09 40.505 10.09 40 1 C40.66 1 41.32 1 42 1 C44.21610269 7.64830806 43 14.99206799 43 22 C27.82 22 12.64 22 -3 22 C-3 15.73 -3 9.46 -3 3 C-2.01 2.01 -1.02 1.02 0 0 Z " fill="#1D1D1D" transform="translate(146,124)"/>
<path d="M0 0 C0.99 0 1.98 0 3 0 C3 5.61 3 11.22 3 17 C9.27 17 15.54 17 22 17 C22 12.38 22 7.76 22 3 C22.33 3 22.66 3 23 3 C23 7.95 23 12.9 23 18 C9.47 18 -4.06 18 -18 18 C-18 12.72 -18 7.44 -18 2 C-17.67 2 -17.34 2 -17 2 C-17 6.95 -17 11.9 -17 17 C-11.39 17 -5.78 17 0 17 C0 11.39 0 5.78 0 0 Z " fill="#7B7B7B" transform="translate(164,125)"/>
<path d="M0 0 C3.32209174 0.67585065 5.99549008 1.91833925 8.984375 3.50390625 C9.91894531 3.99697266 10.85351562 4.49003906 11.81640625 4.99804688 C12.78449219 5.51431641 13.75257813 6.03058594 14.75 6.5625 C16.22533203 7.34270508 16.22533203 7.34270508 17.73046875 8.13867188 C20.15571846 9.42193507 22.578774 10.70916566 25 12 C24.01 13.485 24.01 13.485 23 15 C17.6462535 13.44347945 12.99849053 11.0182491 8.125 8.375 C7.34125 7.95476562 6.5575 7.53453125 5.75 7.1015625 C3.83107943 6.0718978 1.91522397 5.03652433 0 4 C0 2.68 0 1.36 0 0 Z " fill="#535353" transform="translate(143,84)"/>
<path d="M0 0 C1.37466431 0.07069702 1.37466431 0.07069702 2.77709961 0.14282227 C4.26113281 0.21533203 4.26113281 0.21533203 5.77514648 0.28930664 C7.33652344 0.37341797 7.33652344 0.37341797 8.92944336 0.45922852 C10.49662109 0.53753906 10.49662109 0.53753906 12.09545898 0.61743164 C14.68622572 0.74756148 17.27665002 0.8825401 19.86694336 1.02172852 C19.86694336 2.34172852 19.86694336 3.66172852 19.86694336 5.02172852 C8.97694336 5.51672852 8.97694336 5.51672852 -2.13305664 6.02172852 C-1.80305664 4.70172852 -1.47305664 3.38172852 -1.13305664 2.02172852 C-1.79305664 1.69172852 -2.45305664 1.36172852 -3.13305664 1.02172852 C-2.13305664 0.02172852 -2.13305664 0.02172852 0 0 Z " fill="#414141" transform="translate(169.133056640625,96.978271484375)"/>
<path d="M0 0 C4.07793301 -0.06343451 7.62388355 -0.03754812 10.96875 2.484375 C12.6076016 4.2932961 13.94890208 5.79269436 15 8 C14.6484375 10.23046875 14.6484375 10.23046875 14 12 C14 11.01 14 10.02 14 9 C13.34 9 12.68 9 12 9 C11.67 9.99 11.34 10.98 11 12 C10.7525 11.21625 10.505 10.4325 10.25 9.625 C9.23890107 6.97242321 9.23890107 6.97242321 7.3125 5.75 C4.24401125 4.75481446 1.19807965 4.36900919 -2 4 C-1.34 2.68 -0.68 1.36 0 0 Z " fill="#4E4E4E" transform="translate(174,116)"/>
<path d="M0 0 C3.01217112 0.64449607 5.51655836 1.65022182 8.25 3.0625 C8.95640625 3.42472656 9.6628125 3.78695312 10.390625 4.16015625 C10.92171875 4.43730469 11.4528125 4.71445313 12 5 C11.67 6.32 11.34 7.64 11 9 C6.9814387 7.78508612 3.35787751 6.56778868 0 4 C0 2.68 0 1.36 0 0 Z " fill="#5B5B5B" transform="translate(143,84)"/>
<path d="M0 0 C0.66 0 1.32 0 2 0 C2 1.65 2 3.3 2 5 C-1.44833324 7.05257931 -3.31661591 8.0632763 -7.375 7.6875 C-8.24125 7.460625 -9.1075 7.23375 -10 7 C-6.8745041 4.35534962 -3.91211733 3.15585285 0 2 C0 1.34 0 0.68 0 0 Z " fill="#4D4D4D" transform="translate(166,99)"/>
<path d="M0 0 C0.33 1.32 0.66 2.64 1 4 C-1.97 6.475 -1.97 6.475 -5 9 C-5.66 7.68 -6.32 6.36 -7 5 C-2.25 0 -2.25 0 0 0 Z " fill="#6D6D6D" transform="translate(173,117)"/>
<path d="M0 0 C0.25 2.25 0.25 2.25 0 5 C-2 7.3125 -2 7.3125 -4 9 C-4.33 8.34 -4.66 7.68 -5 7 C-5.99 7.495 -5.99 7.495 -7 8 C-4.18918919 0 -4.18918919 0 0 0 Z " fill="#646464" transform="translate(151,118)"/>
<path d="M0 0 C-0.125 1.875 -0.125 1.875 -1 4 C-4.0625 5.25 -4.0625 5.25 -7 6 C-6.625 3.5625 -6.625 3.5625 -6 1 C-4 0 -4 0 0 0 Z " fill="#505050" transform="translate(150,110)"/>
<path d="M0 0 C1.67542976 0.28604898 3.34385343 0.61781233 5 1 C5 2.32 5 3.64 5 5 C3.35 4.67 1.7 4.34 0 4 C-0.33 3.01 -0.66 2.02 -1 1 C-0.67 0.67 -0.34 0.34 0 0 Z " fill="#444444" transform="translate(154,90)"/>
</svg>
